<svg width="300" height="46" viewBox="0 0 300 46" fill="none" xmlns="http://www.w3.org/2000/svg">
<g filter="url(#filter0_d_316_131)">
<path d="M21.35 37.75C19.0167 37.75 16.825 37.3417 14.775 36.525C12.7417 35.6917 10.95 34.475 9.4 32.875C7.86667 31.275 6.66667 29.3167 5.8 27C4.93333 24.6667 4.5 22 4.5 19C4.5 15.0667 5.23333 11.7083 6.7 8.925C8.16667 6.125 10.175 3.98333 12.725 2.5C15.275 0.999999 18.15 0.249999 21.35 0.249999C25.7833 0.249999 29.2917 1.28333 31.875 3.35C34.475 5.4 36.2333 8.28333 37.15 12L31 12.975C30.3167 10.8417 29.2 9.14166 27.65 7.875C26.1 6.59166 24.125 5.95 21.725 5.95C19.3083 5.91666 17.3 6.44167 15.7 7.525C14.1 8.60833 12.8917 10.1333 12.075 12.1C11.275 14.0667 10.875 16.3667 10.875 19C10.875 21.6333 11.275 23.925 12.075 25.875C12.875 27.8083 14.075 29.3167 15.675 30.4C17.2917 31.4833 19.3083 32.0417 21.725 32.075C23.5417 32.0917 25.1333 31.7667 26.5 31.1C27.8667 30.4167 28.9833 29.3917 29.85 28.025C30.7167 26.6417 31.3 24.9167 31.6 22.85H25.25V18.125H38C38.0333 18.3917 38.0583 18.7833 38.075 19.3C38.0917 19.8167 38.1 20.125 38.1 20.225C38.1 23.625 37.425 26.65 36.075 29.3C34.7417 31.9333 32.825 34 30.325 35.5C27.825 37 24.8333 37.75 21.35 37.75ZM41.6211 37V10H46.9461V16.575L46.2961 15.725C46.6294 14.825 47.0711 14.0083 47.6211 13.275C48.1878 12.525 48.8628 11.9083 49.6461 11.425C50.3128 10.975 51.0461 10.625 51.8461 10.375C52.6628 10.1083 53.4961 9.95 54.3461 9.9C55.1961 9.83333 56.0211 9.86667 56.8211 10V15.625C56.0211 15.3917 55.0961 15.3167 54.0461 15.4C53.0128 15.4833 52.0794 15.775 51.2461 16.275C50.4128 16.725 49.7294 17.3 49.1961 18C48.6794 18.7 48.2961 19.5 48.0461 20.4C47.7961 21.2833 47.6711 22.2417 47.6711 23.275V37H41.6211ZM71.8785 37.75C69.1452 37.75 66.7452 37.1583 64.6785 35.975C62.6118 34.7917 60.9952 33.15 59.8285 31.05C58.6785 28.95 58.1035 26.5333 58.1035 23.8C58.1035 20.85 58.6702 18.2917 59.8035 16.125C60.9368 13.9417 62.5118 12.25 64.5285 11.05C66.5452 9.85 68.8785 9.25 71.5285 9.25C74.3285 9.25 76.7035 9.90833 78.6535 11.225C80.6202 12.525 82.0785 14.3667 83.0285 16.75C83.9785 19.1333 84.3369 21.9417 84.1035 25.175H78.1285V22.975C78.1119 20.0417 77.5952 17.9 76.5785 16.55C75.5618 15.2 73.9618 14.525 71.7785 14.525C69.3118 14.525 67.4785 15.2917 66.2785 16.825C65.0785 18.3417 64.4785 20.5667 64.4785 23.5C64.4785 26.2333 65.0785 28.35 66.2785 29.85C67.4785 31.35 69.2285 32.1 71.5285 32.1C73.0118 32.1 74.2868 31.775 75.3535 31.125C76.4368 30.4583 77.2702 29.5 77.8535 28.25L83.8035 30.05C82.7702 32.4833 81.1702 34.375 79.0035 35.725C76.8535 37.075 74.4785 37.75 71.8785 37.75ZM62.5785 25.175V20.625H81.1535V25.175H62.5785ZM95.2434 37.75C93.2934 37.75 91.6434 37.3833 90.2934 36.65C88.9434 35.9 87.9184 34.9083 87.2184 33.675C86.535 32.4417 86.1934 31.0833 86.1934 29.6C86.1934 28.3 86.41 27.1333 86.8434 26.1C87.2767 25.05 87.9434 24.15 88.8434 23.4C89.7434 22.6333 90.91 22.0083 92.3434 21.525C93.4267 21.175 94.6934 20.8583 96.1434 20.575C97.61 20.2917 99.1934 20.0333 100.893 19.8C102.61 19.55 104.402 19.2833 106.268 19L104.118 20.225C104.135 18.3583 103.718 16.9833 102.868 16.1C102.018 15.2167 100.585 14.775 98.5684 14.775C97.3517 14.775 96.1767 15.0583 95.0434 15.625C93.91 16.1917 93.1184 17.1667 92.6684 18.55L87.1684 16.825C87.835 14.5417 89.1017 12.7083 90.9684 11.325C92.8517 9.94167 95.385 9.25 98.5684 9.25C100.968 9.25 103.077 9.64167 104.893 10.425C106.727 11.2083 108.085 12.4917 108.968 14.275C109.452 15.225 109.743 16.2 109.843 17.2C109.943 18.1833 109.993 19.2583 109.993 20.425V37H104.718V31.15L105.593 32.1C104.377 34.05 102.952 35.4833 101.318 36.4C99.7017 37.3 97.6767 37.75 95.2434 37.75ZM96.4434 32.95C97.81 32.95 98.9767 32.7083 99.9434 32.225C100.91 31.7417 101.677 31.15 102.243 30.45C102.827 29.75 103.218 29.0917 103.418 28.475C103.735 27.7083 103.91 26.8333 103.943 25.85C103.993 24.85 104.018 24.0417 104.018 23.425L105.868 23.975C104.052 24.2583 102.493 24.5083 101.193 24.725C99.8934 24.9417 98.7767 25.15 97.8434 25.35C96.91 25.5333 96.085 25.7417 95.3684 25.975C94.6684 26.225 94.0767 26.5167 93.5934 26.85C93.11 27.1833 92.735 27.5667 92.4684 28C92.2184 28.4333 92.0934 28.9417 92.0934 29.525C92.0934 30.1917 92.26 30.7833 92.5934 31.3C92.9267 31.8 93.41 32.2 94.0434 32.5C94.6934 32.8 95.4934 32.95 96.4434 32.95ZM130.827 37C129.044 37.3333 127.294 37.475 125.577 37.425C123.877 37.3917 122.352 37.0833 121.002 36.5C119.652 35.9 118.627 34.9583 117.927 33.675C117.31 32.5083 116.985 31.3167 116.952 30.1C116.919 28.8833 116.902 27.5083 116.902 25.975V2.5H122.902V25.625C122.902 26.7083 122.91 27.6583 122.927 28.475C122.96 29.2917 123.135 29.9583 123.452 30.475C124.052 31.475 125.01 32.0333 126.327 32.15C127.644 32.2667 129.144 32.2 130.827 31.95V37ZM112.002 14.725V10H130.827V14.725H112.002ZM158.868 37.75C155.268 37.75 152.184 36.9667 149.618 35.4C147.051 33.8167 145.076 31.6167 143.693 28.8C142.326 25.9833 141.643 22.7167 141.643 19C141.643 15.2833 142.326 12.0167 143.693 9.2C145.076 6.38333 147.051 4.19167 149.618 2.625C152.184 1.04167 155.268 0.249999 158.868 0.249999C163.018 0.249999 166.476 1.29167 169.243 3.375C172.009 5.44167 173.951 8.23333 175.068 11.75L168.993 13.425C168.293 11.075 167.101 9.24166 165.418 7.925C163.734 6.59167 161.551 5.925 158.868 5.925C156.451 5.925 154.434 6.46667 152.818 7.55C151.218 8.63333 150.009 10.1583 149.193 12.125C148.393 14.075 147.984 16.3667 147.968 19C147.968 21.6333 148.368 23.9333 149.168 25.9C149.984 27.85 151.201 29.3667 152.818 30.45C154.434 31.5333 156.451 32.075 158.868 32.075C161.551 32.075 163.734 31.4083 165.418 30.075C167.101 28.7417 168.293 26.9083 168.993 24.575L175.068 26.25C173.951 29.7667 172.009 32.5667 169.243 34.65C166.476 36.7167 163.018 37.75 158.868 37.75ZM190.982 37.75C188.282 37.75 185.923 37.1417 183.907 35.925C181.89 34.7083 180.323 33.0333 179.207 30.9C178.107 28.75 177.557 26.2833 177.557 23.5C177.557 20.6667 178.123 18.1833 179.257 16.05C180.39 13.9167 181.965 12.25 183.982 11.05C185.998 9.85 188.332 9.25 190.982 9.25C193.698 9.25 196.065 9.85833 198.082 11.075C200.098 12.2917 201.665 13.975 202.782 16.125C203.898 18.2583 204.457 20.7167 204.457 23.5C204.457 26.3 203.89 28.775 202.757 30.925C201.64 33.0583 200.073 34.7333 198.057 35.95C196.04 37.15 193.682 37.75 190.982 37.75ZM190.982 32.1C193.382 32.1 195.165 31.3 196.332 29.7C197.498 28.1 198.082 26.0333 198.082 23.5C198.082 20.8833 197.49 18.8 196.307 17.25C195.123 15.6833 193.348 14.9 190.982 14.9C189.365 14.9 188.032 15.2667 186.982 16C185.948 16.7167 185.182 17.725 184.682 19.025C184.182 20.3083 183.932 21.8 183.932 23.5C183.932 26.1167 184.523 28.2083 185.707 29.775C186.907 31.325 188.665 32.1 190.982 32.1ZM210.815 37V9.575C210.815 8.89167 210.84 8.14167 210.89 7.325C210.94 6.49166 211.082 5.66666 211.315 4.85C211.548 4.03333 211.973 3.29167 212.59 2.625C213.357 1.775 214.182 1.19166 215.065 0.874999C215.965 0.541666 216.848 0.358332 217.715 0.324997C218.582 0.274998 219.34 0.249999 219.99 0.249999H223.365V5.15H220.24C219.09 5.15 218.232 5.44167 217.665 6.025C217.115 6.59167 216.84 7.34167 216.84 8.275V37H210.815ZM206.465 14.725V10H223.365V14.725H206.465ZM227.64 37V9.575C227.64 8.89167 227.665 8.14167 227.715 7.325C227.765 6.49166 227.907 5.66666 228.14 4.85C228.373 4.03333 228.798 3.29167 229.415 2.625C230.182 1.775 231.007 1.19166 231.89 0.874999C232.79 0.541666 233.673 0.358332 234.54 0.324997C235.407 0.274998 236.165 0.249999 236.815 0.249999H240.19V5.15H237.065C235.915 5.15 235.057 5.44167 234.49 6.025C233.94 6.59167 233.665 7.34167 233.665 8.275V37H227.64ZM223.29 14.725V10H240.19V14.725H223.29ZM254.005 37.75C251.272 37.75 248.872 37.1583 246.805 35.975C244.739 34.7917 243.122 33.15 241.955 31.05C240.805 28.95 240.23 26.5333 240.23 23.8C240.23 20.85 240.797 18.2917 241.93 16.125C243.064 13.9417 244.639 12.25 246.655 11.05C248.672 9.85 251.005 9.25 253.655 9.25C256.455 9.25 258.83 9.90833 260.78 11.225C262.747 12.525 264.205 14.3667 265.155 16.75C266.105 19.1333 266.464 21.9417 266.23 25.175H260.255V22.975C260.239 20.0417 259.722 17.9 258.705 16.55C257.689 15.2 256.089 14.525 253.905 14.525C251.439 14.525 249.605 15.2917 248.405 16.825C247.205 18.3417 246.605 20.5667 246.605 23.5C246.605 26.2333 247.205 28.35 248.405 29.85C249.605 31.35 251.355 32.1 253.655 32.1C255.139 32.1 256.414 31.775 257.48 31.125C258.564 30.4583 259.397 29.5 259.98 28.25L265.93 30.05C264.897 32.4833 263.297 34.375 261.13 35.725C258.98 37.075 256.605 37.75 254.005 37.75ZM244.705 25.175V20.625H263.28V25.175H244.705ZM282.584 37.75C279.85 37.75 277.45 37.1583 275.384 35.975C273.317 34.7917 271.7 33.15 270.534 31.05C269.384 28.95 268.809 26.5333 268.809 23.8C268.809 20.85 269.375 18.2917 270.509 16.125C271.642 13.9417 273.217 12.25 275.234 11.05C277.25 9.85 279.584 9.25 282.234 9.25C285.034 9.25 287.409 9.90833 289.359 11.225C291.325 12.525 292.784 14.3667 293.734 16.75C294.684 19.1333 295.042 21.9417 294.809 25.175H288.834V22.975C288.817 20.0417 288.3 17.9 287.284 16.55C286.267 15.2 284.667 14.525 282.484 14.525C280.017 14.525 278.184 15.2917 276.984 16.825C275.784 18.3417 275.184 20.5667 275.184 23.5C275.184 26.2333 275.784 28.35 276.984 29.85C278.184 31.35 279.934 32.1 282.234 32.1C283.717 32.1 284.992 31.775 286.059 31.125C287.142 30.4583 287.975 29.5 288.559 28.25L294.509 30.05C293.475 32.4833 291.875 34.375 289.709 35.725C287.559 37.075 285.184 37.75 282.584 37.75ZM273.284 25.175V20.625H291.859V25.175H273.284Z" fill="white"/>
</g>
<defs>
<filter id="filter0_d_316_131" x="0.5" y="0.25" width="298.659" height="45.5" filterUnits="userSpaceOnUse" color-interpolation-filters="sRGB">
<feFlood flood-opacity="0" result="BackgroundImageFix"/>
<feColorMatrix in="SourceAlpha" type="matrix" values="0 0 0 0 0 0 0 0 0 0 0 0 0 0 0 0 0 0 127 0" result="hardAlpha"/>
<feOffset dy="4"/>
<feGaussianBlur stdDeviation="2"/>
<feComposite in2="hardAlpha" operator="out"/>
<feColorMatrix type="matrix" values="0 0 0 0 0 0 0 0 0 0 0 0 0 0 0 0 0 0 0.25 0"/>
<feBlend mode="normal" in2="BackgroundImageFix" result="effect1_dropShadow_316_131"/>
<feBlend mode="normal" in="SourceGraphic" in2="effect1_dropShadow_316_131" result="shape"/>
</filter>
</defs>
</svg>
